<svg width="16" height="16" viewBox="0 0 16 16" fill="none" xmlns="http://www.w3.org/2000/svg">
<path fill-rule="evenodd" clip-rule="evenodd" d="M8.43275 4.76066C8.19092 4.99274 7.80908 4.99274 7.56725 4.76066L7.1345 4.34538C6.62798 3.8593 5.94371 3.5625 5.1875 3.5625C3.6342 3.5625 2.375 4.8217 2.375 6.375C2.375 7.86414 3.18112 9.09378 4.34485 10.1041C5.50957 11.1153 6.90212 11.7859 7.73415 12.1282C7.90812 12.1997 8.09187 12.1997 8.26585 12.1282C9.09787 11.7859 10.4904 11.1153 11.6552 10.1041C12.8189 9.09378 13.625 7.86414 13.625 6.375C13.625 4.8217 12.3658 3.5625 10.8125 3.5625C10.0563 3.5625 9.37202 3.8593 8.8655 4.34538L8.43275 4.76066ZM8 3.44348C7.27007 2.743 6.27906 2.3125 5.1875 2.3125C2.94384 2.3125 1.125 4.13134 1.125 6.375C1.125 10.3552 5.48146 12.5531 7.25862 13.2842C7.73723 13.4811 8.26277 13.4811 8.74138 13.2842C10.5185 12.5531 14.875 10.3552 14.875 6.375C14.875 4.13134 13.0562 2.3125 10.8125 2.3125C9.72094 2.3125 8.72993 2.743 8 3.44348Z" fill="#E73C3D"/>
<path d="M7.1345 4.34538L7.56725 4.76066C7.80908 4.99274 8.19092 4.99274 8.43275 4.76066L8.8655 4.34538C9.37202 3.8593 10.0563 3.5625 10.8125 3.5625C12.3658 3.5625 13.625 4.8217 13.625 6.375C13.625 7.86414 12.8189 9.09378 11.6552 10.1041C10.4904 11.1153 9.09787 11.7859 8.26585 12.1282C8.09187 12.1997 7.90812 12.1997 7.73415 12.1282C6.90212 11.7859 5.50957 11.1153 4.34485 10.1041C3.18112 9.09378 2.375 7.86414 2.375 6.375C2.375 4.8217 3.6342 3.5625 5.1875 3.5625C5.94371 3.5625 6.62798 3.8593 7.1345 4.34538Z" fill="#E73C3D"/>
</svg>
