<svg width="18" height="18" viewBox="0 0 18 18" fill="none" xmlns="http://www.w3.org/2000/svg">
<path d="M6.51889 13.9011V13.901H6.516H2.7C2.59387 13.901 2.49211 13.8589 2.41711 13.7839C2.34211 13.7089 2.3 13.6073 2.3 13.5013L2.30001 9.68641L2.29999 9.68352C2.29969 9.63093 2.30977 9.5788 2.32966 9.5301C2.34944 9.4817 2.37853 9.43764 2.41528 9.40043C2.4155 9.4002 2.41572 9.39998 2.41594 9.39976L8.66025 3.16626L8.66113 3.16538L11.1991 0.619121L11.1999 0.618294C11.2371 0.58082 11.2814 0.551068 11.3301 0.530762C11.3789 0.510457 11.4312 0.5 11.484 0.5C11.5368 0.5 11.5891 0.510457 11.6379 0.530762C11.6865 0.551021 11.7307 0.580681 11.7678 0.618032C11.7679 0.618119 11.768 0.618206 11.7681 0.618294L15.5834 4.47755L15.5834 4.47757L15.5869 4.48107C15.6244 4.51824 15.6542 4.56246 15.6745 4.61115C15.6948 4.65985 15.7052 4.71209 15.7052 4.76484C15.7052 4.81759 15.6948 4.86982 15.6745 4.91852C15.6543 4.96682 15.6249 5.01071 15.5879 5.04769C15.5876 5.04799 15.5873 5.0483 15.5869 5.0486L13.0333 7.54757L13.0333 7.54754L13.0292 7.55158L6.80294 13.7851C6.80273 13.7853 6.80251 13.7855 6.80229 13.7857C6.76506 13.8225 6.72096 13.8516 6.6725 13.8714C6.62375 13.8913 6.57155 13.9014 6.51889 13.9011ZM11.8375 1.81998L11.484 1.46658L11.1305 1.81998L9.8525 3.09761L9.49879 3.45122L9.8525 3.80482L12.3995 6.35108L12.753 6.70448L13.1065 6.35108L14.3845 5.07345L14.7382 4.71985L14.3845 4.36625L11.8375 1.81998ZM3.2465 9.7017L3.1 9.84815V10.0553V12.6016V13.1016H3.6H6.147H6.35406L6.5005 12.9552L11.8375 7.61972L12.1912 7.26611L11.8375 6.91251L9.2905 4.36625L8.937 4.01285L8.5835 4.36625L3.2465 9.7017ZM0.9 16.7005H17.1C17.2061 16.7005 17.3079 16.7427 17.3829 16.8177C17.4579 16.8926 17.5 16.9943 17.5 17.1003C17.5 17.2062 17.4579 17.3079 17.3829 17.3829C17.3079 17.4578 17.2061 17.5 17.1 17.5H0.9C0.793866 17.5 0.692109 17.4578 0.617106 17.3829C0.542108 17.3079 0.5 17.2062 0.5 17.1003C0.5 16.9943 0.542108 16.8926 0.617106 16.8177C0.692109 16.7427 0.793866 16.7005 0.9 16.7005Z" fill="#353945" stroke="#353945"/>
</svg>
