<svg width="23" height="21" viewBox="0 0 23 21" fill="none" xmlns="http://www.w3.org/2000/svg">
<path d="M1 4.66602H4.66667" stroke="#212B36" stroke-width="2" stroke-linecap="round" stroke-linejoin="round"/>
<path d="M15.6665 4.66602H21.1665" stroke="#212B36" stroke-width="2" stroke-linecap="round" stroke-linejoin="round"/>
<path d="M8.33317 8.33333C10.3582 8.33333 11.9998 6.69171 11.9998 4.66667C11.9998 2.64162 10.3582 1 8.33317 1C6.30813 1 4.6665 2.64162 4.6665 4.66667C4.6665 6.69171 6.30813 8.33333 8.33317 8.33333Z" stroke="#212B36" stroke-width="2" stroke-linecap="round" stroke-linejoin="round"/>
<path d="M21.1667 15.5H17.5" stroke="#212B36" stroke-width="2" stroke-linecap="round" stroke-linejoin="round"/>
<path d="M6.5 15.5H1" stroke="#212B36" stroke-width="2" stroke-linecap="round" stroke-linejoin="round"/>
<path d="M13.8332 19.1673C15.8582 19.1673 17.4998 17.5257 17.4998 15.5007C17.4998 13.4756 15.8582 11.834 13.8332 11.834C11.8081 11.834 10.1665 13.4756 10.1665 15.5007C10.1665 17.5257 11.8081 19.1673 13.8332 19.1673Z" stroke="#212B36" stroke-width="2" stroke-linecap="round" stroke-linejoin="round"/>
</svg>
