<svg width="21" height="20" viewBox="0 0 21 20" fill="none" xmlns="http://www.w3.org/2000/svg">
<path d="M20.076 12.4477C19.85 12.2216 19.5817 12.0423 19.2863 11.9199C18.9909 11.7976 18.6744 11.7346 18.3547 11.7346C18.035 11.7346 17.7184 11.7976 17.423 11.9199C17.1277 12.0423 16.8593 12.2216 16.6333 12.4477L16.0807 13.0004L15.528 12.4477C15.1876 12.1073 14.7538 11.8754 14.2816 11.7815C13.8093 11.6876 13.3199 11.7358 12.875 11.92C12.4302 12.1043 12.05 12.4163 11.7825 12.8166C11.515 13.217 11.3722 13.6876 11.3722 14.1691C11.3722 14.9556 11.7883 15.6504 12.2418 16.263C12.74 16.9382 13.2802 17.5815 13.8592 18.1888C14.4383 18.8047 15.0735 19.3654 15.7566 19.8635C15.7988 19.9067 15.8492 19.941 15.9048 19.9644C15.9605 19.9879 16.0203 20 16.0806 20C16.141 20 16.2008 19.9879 16.2564 19.9644C16.3121 19.941 16.3625 19.9067 16.4047 19.8635C17.0878 19.3654 17.723 18.8047 18.3021 18.1888C18.8811 17.5815 19.4213 16.9382 19.9195 16.263C20.373 15.6504 20.7891 14.9556 20.7891 14.1691C20.7895 13.8493 20.7267 13.5327 20.6043 13.2373C20.482 12.9419 20.3024 12.6735 20.076 12.4477Z" fill="url(#paint0_linear_930:123641)"/>
<path d="M12.3129 4.72226H4.5419C4.40433 4.72226 4.2724 4.77691 4.17512 4.87419C4.07784 4.97146 4.02319 5.1034 4.02319 5.24097C4.02319 5.37854 4.07784 5.51047 4.17512 5.60775C4.2724 5.70503 4.40433 5.75968 4.5419 5.75968H12.3129C12.4505 5.75968 12.5824 5.70503 12.6797 5.60775C12.777 5.51047 12.8316 5.37854 12.8316 5.24097C12.8316 5.1034 12.777 4.97146 12.6797 4.87419C12.5824 4.77691 12.4505 4.72226 12.3129 4.72226Z" fill="#3772FF"/>
<path d="M12.3129 8.37561H4.5419C4.40433 8.37561 4.2724 8.43026 4.17512 8.52754C4.07784 8.62481 4.02319 8.75675 4.02319 8.89432C4.02319 9.03189 4.07784 9.16382 4.17512 9.2611C4.2724 9.35838 4.40433 9.41303 4.5419 9.41303H12.3129C12.4505 9.41303 12.5824 9.35838 12.6797 9.2611C12.777 9.16382 12.8316 9.03189 12.8316 8.89432C12.8316 8.75675 12.777 8.62481 12.6797 8.52754C12.5824 8.43026 12.4505 8.37561 12.3129 8.37561Z" fill="#3772FF"/>
<path d="M8.37953 12.029H4.5419C4.40433 12.029 4.2724 12.0837 4.17512 12.181C4.07784 12.2782 4.02319 12.4102 4.02319 12.5477C4.02319 12.6853 4.07784 12.8173 4.17512 12.9145C4.2724 13.0118 4.40433 13.0665 4.5419 13.0665H8.37953C8.5171 13.0665 8.64903 13.0118 8.74631 12.9145C8.84359 12.8173 8.89824 12.6853 8.89824 12.5477C8.89824 12.4102 8.84359 12.2782 8.74631 12.181C8.64903 12.0837 8.5171 12.029 8.37953 12.029Z" fill="#3772FF"/>
<path d="M16.0806 5.75989e-09H0.773936C0.568687 3.75506e-05 0.371855 0.0815891 0.226722 0.226722C0.0815891 0.371855 3.75448e-05 0.568687 0 0.773936V19.2261C3.7098e-05 19.4313 0.0815885 19.6281 0.226722 19.7733C0.371855 19.9184 0.568687 20 0.773936 20H14.6075C14.1386 19.6097 13.6931 19.192 13.2734 18.7492C13.1801 18.6515 13.0875 18.5525 12.9955 18.4521H1.54787V1.54787H15.3066V11.2895C15.5911 11.4383 15.8519 11.6285 16.0806 11.8538C16.3093 11.6285 16.5701 11.4384 16.8545 11.2895V0.773936C16.8545 0.672298 16.8345 0.571653 16.7956 0.477749C16.7567 0.383845 16.6997 0.298522 16.6278 0.226653C16.556 0.154784 16.4707 0.0977767 16.3768 0.0588872C16.2829 0.0199976 16.1822 -1.23946e-05 16.0806 5.75989e-09Z" fill="#141416"/>
<defs>
<linearGradient id="paint0_linear_930:123641" x1="16.0807" y1="12.566" x2="16.0807" y2="20.3268" gradientUnits="userSpaceOnUse">
<stop stop-color="#FF223E"/>
<stop offset="1" stop-color="#B5182C"/>
</linearGradient>
</defs>
</svg>
