<svg width="20" height="20" viewBox="0 0 20 20" fill="none" xmlns="http://www.w3.org/2000/svg">
<mask id="path-1-outside-1_896:124093" maskUnits="userSpaceOnUse" x="-0.441406" y="-0.306641" width="21" height="20" fill="black">
<rect fill="white" x="-0.441406" y="-0.306641" width="21" height="20"/>
<path d="M11.2079 1.30251C11.2079 0.967928 11.5438 0.693359 11.9636 0.693359C12.3834 0.693359 12.7192 0.964927 12.7192 1.30251V3.96418C12.7192 4.29876 12.3834 4.57333 11.9636 4.57333C11.5438 4.57333 11.2079 4.30176 11.2079 3.96418V1.30251ZM2.75227 12.4038H4.4834C4.59331 12.4038 4.68338 12.4923 4.68338 12.6003V13.8577C4.68338 13.9657 4.59331 14.0542 4.4834 14.0542H2.75227C2.64236 14.0542 2.55229 13.9657 2.55229 13.8577V12.6003C2.55229 12.4908 2.64236 12.4038 2.75227 12.4038ZM9.38062 8.82089H11.1117C11.1652 8.82089 11.2125 8.8419 11.2491 8.8749C10.5698 9.29201 9.98056 9.83514 9.51343 10.4728H9.38062C9.27071 10.4728 9.18064 10.3843 9.18064 10.2763V9.01894C9.18064 8.90941 9.27071 8.82089 9.38062 8.82089ZM6.06645 8.82089H7.79757C7.90748 8.82089 7.99755 8.90941 7.99755 9.01744V10.2748C7.99755 10.3828 7.90748 10.4713 7.79757 10.4713H6.06645C5.95653 10.4713 5.86646 10.3828 5.86646 10.2748V9.01744C5.86646 8.90941 5.95653 8.82089 6.06645 8.82089ZM2.75227 8.82089H4.4834C4.59331 8.82089 4.68338 8.90941 4.68338 9.01744V10.2748C4.68338 10.3828 4.59331 10.4713 4.4834 10.4713H2.75227C2.64236 10.4713 2.55229 10.3828 2.55229 10.2748V9.01744C2.55229 8.90941 2.64236 8.82089 2.75227 8.82089ZM6.06645 12.4038H7.79757C7.90748 12.4038 7.99755 12.4923 7.99755 12.6003V13.8577C7.99755 13.9657 7.90748 14.0542 7.79757 14.0542H6.06645C5.95653 14.0542 5.86646 13.9657 5.86646 13.8577V12.6003C5.86646 12.4908 5.95653 12.4038 6.06645 12.4038ZM16.357 9.62659C18.1446 10.3543 19.317 12.0692 19.317 13.9807C19.317 15.2815 18.7797 16.4608 17.9126 17.313C17.0455 18.1652 15.8472 18.6934 14.5221 18.6934C13.1986 18.6934 12.0002 18.1652 11.1316 17.313C10.2645 16.4593 9.72715 15.2815 9.72715 13.9807C9.72715 12.0842 10.927 10.3153 12.7116 9.59509C13.8183 9.15097 15.2579 9.17798 16.357 9.62659ZM13.7848 13.8547C13.8443 13.7901 13.9176 13.7346 13.997 13.6926V11.6431C13.997 11.4345 14.1695 11.265 14.3817 11.265C14.5938 11.265 14.7679 11.4345 14.7679 11.6431V13.6926C14.9083 13.7676 15.0243 13.8802 15.0991 14.0182H16.5891C16.8028 14.0182 16.9738 14.1877 16.9738 14.3963C16.9738 14.6048 16.8013 14.7744 16.5891 14.7744H15.0991C14.9617 15.0264 14.6931 15.1975 14.3817 15.1975C14.1374 15.1975 13.9191 15.091 13.7695 14.9244C13.4932 14.6138 13.5069 14.1502 13.7848 13.8547ZM17.3691 11.2575C15.3831 9.30551 12.0338 9.85765 10.8721 12.3153C10.6339 12.8209 10.4996 13.385 10.4996 13.9792C10.4996 15.0715 10.9499 16.0602 11.6781 16.7759C12.4063 17.4916 13.4123 17.9342 14.5236 17.9342C15.635 17.9342 16.641 17.4901 17.3691 16.7759C18.0973 16.0602 18.5477 15.0715 18.5477 13.9792C18.5477 13.3595 18.4026 12.7729 18.1446 12.2507C17.9477 11.8561 17.6851 11.5681 17.3691 11.2575ZM4.42539 1.30251C4.42539 0.967928 4.76123 0.693359 5.18104 0.693359C5.59932 0.693359 5.93669 0.964927 5.93669 1.30251V3.96418C5.93669 4.29876 5.59932 4.57333 5.18104 4.57333C4.76276 4.57333 4.42539 4.30176 4.42539 3.96418V1.30251ZM1.39057 6.51331H15.7724V3.44955C15.7724 3.34452 15.7296 3.253 15.6609 3.18548C15.5922 3.11797 15.4945 3.07596 15.3922 3.07596H14.0137C13.7832 3.07596 13.5955 2.89141 13.5955 2.66485C13.5955 2.4383 13.7832 2.25375 14.0137 2.25375H15.3922C15.7296 2.25375 16.0334 2.38728 16.2547 2.60484C16.4761 2.82239 16.612 3.12097 16.612 3.45255V8.31827C16.3372 8.22524 16.0548 8.15022 15.7632 8.09471V7.33402H15.7724H1.39057V15.2725C1.39057 15.3775 1.43332 15.4691 1.50201 15.5366C1.57071 15.6041 1.66841 15.6461 1.77069 15.6461H8.60512C8.68298 15.9312 8.78068 16.2102 8.89823 16.4773H1.77832C1.44248 16.4773 1.13716 16.3438 0.91581 16.1262C0.694458 15.9072 0.558594 15.6101 0.558594 15.2785V3.45255C0.558594 3.12247 0.694458 2.82389 0.91581 2.60484C1.13716 2.38728 1.44095 2.25375 1.77832 2.25375H3.24993C3.48044 2.25375 3.66821 2.4383 3.66821 2.66485C3.66821 2.89141 3.48044 3.07596 3.24993 3.07596H1.77832C1.67146 3.07596 1.57834 3.11797 1.50964 3.18548C1.44095 3.253 1.39821 3.34902 1.39821 3.44955V6.51481H1.39057V6.51331ZM7.14267 3.07445C6.91216 3.07445 6.72439 2.88991 6.72439 2.66335C6.72439 2.4368 6.91216 2.25225 7.14267 2.25225H9.95003C10.1805 2.25225 10.3683 2.4368 10.3683 2.66335C10.3683 2.88991 10.1805 3.07445 9.95003 3.07445H7.14267Z"/>
</mask>
<path d="M11.2079 1.30251C11.2079 0.967928 11.5438 0.693359 11.9636 0.693359C12.3834 0.693359 12.7192 0.964927 12.7192 1.30251V3.96418C12.7192 4.29876 12.3834 4.57333 11.9636 4.57333C11.5438 4.57333 11.2079 4.30176 11.2079 3.96418V1.30251ZM2.75227 12.4038H4.4834C4.59331 12.4038 4.68338 12.4923 4.68338 12.6003V13.8577C4.68338 13.9657 4.59331 14.0542 4.4834 14.0542H2.75227C2.64236 14.0542 2.55229 13.9657 2.55229 13.8577V12.6003C2.55229 12.4908 2.64236 12.4038 2.75227 12.4038ZM9.38062 8.82089H11.1117C11.1652 8.82089 11.2125 8.8419 11.2491 8.8749C10.5698 9.29201 9.98056 9.83514 9.51343 10.4728H9.38062C9.27071 10.4728 9.18064 10.3843 9.18064 10.2763V9.01894C9.18064 8.90941 9.27071 8.82089 9.38062 8.82089ZM6.06645 8.82089H7.79757C7.90748 8.82089 7.99755 8.90941 7.99755 9.01744V10.2748C7.99755 10.3828 7.90748 10.4713 7.79757 10.4713H6.06645C5.95653 10.4713 5.86646 10.3828 5.86646 10.2748V9.01744C5.86646 8.90941 5.95653 8.82089 6.06645 8.82089ZM2.75227 8.82089H4.4834C4.59331 8.82089 4.68338 8.90941 4.68338 9.01744V10.2748C4.68338 10.3828 4.59331 10.4713 4.4834 10.4713H2.75227C2.64236 10.4713 2.55229 10.3828 2.55229 10.2748V9.01744C2.55229 8.90941 2.64236 8.82089 2.75227 8.82089ZM6.06645 12.4038H7.79757C7.90748 12.4038 7.99755 12.4923 7.99755 12.6003V13.8577C7.99755 13.9657 7.90748 14.0542 7.79757 14.0542H6.06645C5.95653 14.0542 5.86646 13.9657 5.86646 13.8577V12.6003C5.86646 12.4908 5.95653 12.4038 6.06645 12.4038ZM16.357 9.62659C18.1446 10.3543 19.317 12.0692 19.317 13.9807C19.317 15.2815 18.7797 16.4608 17.9126 17.313C17.0455 18.1652 15.8472 18.6934 14.5221 18.6934C13.1986 18.6934 12.0002 18.1652 11.1316 17.313C10.2645 16.4593 9.72715 15.2815 9.72715 13.9807C9.72715 12.0842 10.927 10.3153 12.7116 9.59509C13.8183 9.15097 15.2579 9.17798 16.357 9.62659ZM13.7848 13.8547C13.8443 13.7901 13.9176 13.7346 13.997 13.6926V11.6431C13.997 11.4345 14.1695 11.265 14.3817 11.265C14.5938 11.265 14.7679 11.4345 14.7679 11.6431V13.6926C14.9083 13.7676 15.0243 13.8802 15.0991 14.0182H16.5891C16.8028 14.0182 16.9738 14.1877 16.9738 14.3963C16.9738 14.6048 16.8013 14.7744 16.5891 14.7744H15.0991C14.9617 15.0264 14.6931 15.1975 14.3817 15.1975C14.1374 15.1975 13.9191 15.091 13.7695 14.9244C13.4932 14.6138 13.5069 14.1502 13.7848 13.8547ZM17.3691 11.2575C15.3831 9.30551 12.0338 9.85765 10.8721 12.3153C10.6339 12.8209 10.4996 13.385 10.4996 13.9792C10.4996 15.0715 10.9499 16.0602 11.6781 16.7759C12.4063 17.4916 13.4123 17.9342 14.5236 17.9342C15.635 17.9342 16.641 17.4901 17.3691 16.7759C18.0973 16.0602 18.5477 15.0715 18.5477 13.9792C18.5477 13.3595 18.4026 12.7729 18.1446 12.2507C17.9477 11.8561 17.6851 11.5681 17.3691 11.2575ZM4.42539 1.30251C4.42539 0.967928 4.76123 0.693359 5.18104 0.693359C5.59932 0.693359 5.93669 0.964927 5.93669 1.30251V3.96418C5.93669 4.29876 5.59932 4.57333 5.18104 4.57333C4.76276 4.57333 4.42539 4.30176 4.42539 3.96418V1.30251ZM1.39057 6.51331H15.7724V3.44955C15.7724 3.34452 15.7296 3.253 15.6609 3.18548C15.5922 3.11797 15.4945 3.07596 15.3922 3.07596H14.0137C13.7832 3.07596 13.5955 2.89141 13.5955 2.66485C13.5955 2.4383 13.7832 2.25375 14.0137 2.25375H15.3922C15.7296 2.25375 16.0334 2.38728 16.2547 2.60484C16.4761 2.82239 16.612 3.12097 16.612 3.45255V8.31827C16.3372 8.22524 16.0548 8.15022 15.7632 8.09471V7.33402H15.7724H1.39057V15.2725C1.39057 15.3775 1.43332 15.4691 1.50201 15.5366C1.57071 15.6041 1.66841 15.6461 1.77069 15.6461H8.60512C8.68298 15.9312 8.78068 16.2102 8.89823 16.4773H1.77832C1.44248 16.4773 1.13716 16.3438 0.91581 16.1262C0.694458 15.9072 0.558594 15.6101 0.558594 15.2785V3.45255C0.558594 3.12247 0.694458 2.82389 0.91581 2.60484C1.13716 2.38728 1.44095 2.25375 1.77832 2.25375H3.24993C3.48044 2.25375 3.66821 2.4383 3.66821 2.66485C3.66821 2.89141 3.48044 3.07596 3.24993 3.07596H1.77832C1.67146 3.07596 1.57834 3.11797 1.50964 3.18548C1.44095 3.253 1.39821 3.34902 1.39821 3.44955V6.51481H1.39057V6.51331ZM7.14267 3.07445C6.91216 3.07445 6.72439 2.88991 6.72439 2.66335C6.72439 2.4368 6.91216 2.25225 7.14267 2.25225H9.95003C10.1805 2.25225 10.3683 2.4368 10.3683 2.66335C10.3683 2.88991 10.1805 3.07445 9.95003 3.07445H7.14267Z" fill="#777E90"/>
<path d="M11.2079 1.30251C11.2079 0.967928 11.5438 0.693359 11.9636 0.693359C12.3834 0.693359 12.7192 0.964927 12.7192 1.30251V3.96418C12.7192 4.29876 12.3834 4.57333 11.9636 4.57333C11.5438 4.57333 11.2079 4.30176 11.2079 3.96418V1.30251ZM2.75227 12.4038H4.4834C4.59331 12.4038 4.68338 12.4923 4.68338 12.6003V13.8577C4.68338 13.9657 4.59331 14.0542 4.4834 14.0542H2.75227C2.64236 14.0542 2.55229 13.9657 2.55229 13.8577V12.6003C2.55229 12.4908 2.64236 12.4038 2.75227 12.4038ZM9.38062 8.82089H11.1117C11.1652 8.82089 11.2125 8.8419 11.2491 8.8749C10.5698 9.29201 9.98056 9.83514 9.51343 10.4728H9.38062C9.27071 10.4728 9.18064 10.3843 9.18064 10.2763V9.01894C9.18064 8.90941 9.27071 8.82089 9.38062 8.82089ZM6.06645 8.82089H7.79757C7.90748 8.82089 7.99755 8.90941 7.99755 9.01744V10.2748C7.99755 10.3828 7.90748 10.4713 7.79757 10.4713H6.06645C5.95653 10.4713 5.86646 10.3828 5.86646 10.2748V9.01744C5.86646 8.90941 5.95653 8.82089 6.06645 8.82089ZM2.75227 8.82089H4.4834C4.59331 8.82089 4.68338 8.90941 4.68338 9.01744V10.2748C4.68338 10.3828 4.59331 10.4713 4.4834 10.4713H2.75227C2.64236 10.4713 2.55229 10.3828 2.55229 10.2748V9.01744C2.55229 8.90941 2.64236 8.82089 2.75227 8.82089ZM6.06645 12.4038H7.79757C7.90748 12.4038 7.99755 12.4923 7.99755 12.6003V13.8577C7.99755 13.9657 7.90748 14.0542 7.79757 14.0542H6.06645C5.95653 14.0542 5.86646 13.9657 5.86646 13.8577V12.6003C5.86646 12.4908 5.95653 12.4038 6.06645 12.4038ZM16.357 9.62659C18.1446 10.3543 19.317 12.0692 19.317 13.9807C19.317 15.2815 18.7797 16.4608 17.9126 17.313C17.0455 18.1652 15.8472 18.6934 14.5221 18.6934C13.1986 18.6934 12.0002 18.1652 11.1316 17.313C10.2645 16.4593 9.72715 15.2815 9.72715 13.9807C9.72715 12.0842 10.927 10.3153 12.7116 9.59509C13.8183 9.15097 15.2579 9.17798 16.357 9.62659ZM13.7848 13.8547C13.8443 13.7901 13.9176 13.7346 13.997 13.6926V11.6431C13.997 11.4345 14.1695 11.265 14.3817 11.265C14.5938 11.265 14.7679 11.4345 14.7679 11.6431V13.6926C14.9083 13.7676 15.0243 13.8802 15.0991 14.0182H16.5891C16.8028 14.0182 16.9738 14.1877 16.9738 14.3963C16.9738 14.6048 16.8013 14.7744 16.5891 14.7744H15.0991C14.9617 15.0264 14.6931 15.1975 14.3817 15.1975C14.1374 15.1975 13.9191 15.091 13.7695 14.9244C13.4932 14.6138 13.5069 14.1502 13.7848 13.8547ZM17.3691 11.2575C15.3831 9.30551 12.0338 9.85765 10.8721 12.3153C10.6339 12.8209 10.4996 13.385 10.4996 13.9792C10.4996 15.0715 10.9499 16.0602 11.6781 16.7759C12.4063 17.4916 13.4123 17.9342 14.5236 17.9342C15.635 17.9342 16.641 17.4901 17.3691 16.7759C18.0973 16.0602 18.5477 15.0715 18.5477 13.9792C18.5477 13.3595 18.4026 12.7729 18.1446 12.2507C17.9477 11.8561 17.6851 11.5681 17.3691 11.2575ZM4.42539 1.30251C4.42539 0.967928 4.76123 0.693359 5.18104 0.693359C5.59932 0.693359 5.93669 0.964927 5.93669 1.30251V3.96418C5.93669 4.29876 5.59932 4.57333 5.18104 4.57333C4.76276 4.57333 4.42539 4.30176 4.42539 3.96418V1.30251ZM1.39057 6.51331H15.7724V3.44955C15.7724 3.34452 15.7296 3.253 15.6609 3.18548C15.5922 3.11797 15.4945 3.07596 15.3922 3.07596H14.0137C13.7832 3.07596 13.5955 2.89141 13.5955 2.66485C13.5955 2.4383 13.7832 2.25375 14.0137 2.25375H15.3922C15.7296 2.25375 16.0334 2.38728 16.2547 2.60484C16.4761 2.82239 16.612 3.12097 16.612 3.45255V8.31827C16.3372 8.22524 16.0548 8.15022 15.7632 8.09471V7.33402H15.7724H1.39057V15.2725C1.39057 15.3775 1.43332 15.4691 1.50201 15.5366C1.57071 15.6041 1.66841 15.6461 1.77069 15.6461H8.60512C8.68298 15.9312 8.78068 16.2102 8.89823 16.4773H1.77832C1.44248 16.4773 1.13716 16.3438 0.91581 16.1262C0.694458 15.9072 0.558594 15.6101 0.558594 15.2785V3.45255C0.558594 3.12247 0.694458 2.82389 0.91581 2.60484C1.13716 2.38728 1.44095 2.25375 1.77832 2.25375H3.24993C3.48044 2.25375 3.66821 2.4383 3.66821 2.66485C3.66821 2.89141 3.48044 3.07596 3.24993 3.07596H1.77832C1.67146 3.07596 1.57834 3.11797 1.50964 3.18548C1.44095 3.253 1.39821 3.34902 1.39821 3.44955V6.51481H1.39057V6.51331ZM7.14267 3.07445C6.91216 3.07445 6.72439 2.88991 6.72439 2.66335C6.72439 2.4368 6.91216 2.25225 7.14267 2.25225H9.95003C10.1805 2.25225 10.3683 2.4368 10.3683 2.66335C10.3683 2.88991 10.1805 3.07445 9.95003 3.07445H7.14267Z" stroke="#777E90" stroke-width="0.8" mask="url(#path-1-outside-1_896:124093)"/>
</svg>
