<svg width="19" height="19" viewBox="0 0 19 19" fill="none" xmlns="http://www.w3.org/2000/svg">
<path d="M17.8078 4.59407L17.8061 4.62588L17.8504 4.73187C17.8577 4.74939 17.8614 4.76783 17.8616 4.78627V17.875C17.8616 17.9565 17.8287 18.0365 17.7673 18.0969C17.7056 18.1575 17.6201 18.1931 17.5292 18.1931H0.880437C0.789501 18.1931 0.704 18.1575 0.642296 18.0969C0.580884 18.0365 0.547999 17.9565 0.547999 17.875V4.78449V4.75899L0.545405 4.73362C0.544969 4.72936 0.544969 4.72507 0.545405 4.72081L0.551849 4.65779L0.549743 4.64387L1.36501 1.43876L1.36501 1.43876L1.36539 1.43726C1.38265 1.36849 1.42382 1.30579 1.48416 1.26071C1.54467 1.21551 1.62034 1.19126 1.69856 1.1935L1.70572 1.19371H1.71287H15.8643V1.19374L15.8697 1.19368C15.9388 1.19293 16.0058 1.21283 16.0618 1.24973C16.1178 1.28657 16.1596 1.33824 16.1834 1.39689L16.1914 1.41675L16.2012 1.43586L17.8078 4.59407ZM2.36218 1.83002H1.97344L1.87761 2.20676L1.46139 3.84307L1.30285 4.46633H1.94596H16.1806H16.996L16.6263 3.73962L15.7938 2.1033L15.6548 1.83002H15.3482H2.36218ZM16.6968 17.5568H17.1968V17.0568V5.60264V5.10264H16.6968H1.71287H1.21287V5.60264V17.0568V17.5568H1.71287H16.6968Z" fill="#777E90" stroke="#777E90"/>
<path d="M9.53207 15.7705C10.4561 15.7705 11.2121 15.5425 11.7881 15.0865C12.3641 14.6185 12.6521 13.9945 12.6521 13.1905C12.6521 12.5065 12.3761 11.9545 12.0761 11.6305C11.9321 11.4625 11.7161 11.3065 11.4281 11.1625C11.1521 11.0065 10.9121 10.8985 10.7321 10.8385L9.95207 10.5865C9.34007 10.4065 8.93207 10.2385 8.72807 10.0825C8.53607 9.92654 8.44007 9.74654 8.44007 9.54254C8.44007 9.19454 8.76407 8.90654 9.34007 8.90654C10.0721 8.90654 10.4921 9.24254 10.7921 9.87854L12.4121 8.93054C11.8001 7.69454 10.7201 7.03454 9.34007 7.03454C8.57207 7.03454 7.91207 7.26254 7.34807 7.73054C6.79607 8.19854 6.52007 8.81054 6.52007 9.59054C6.52007 10.3585 6.79607 10.9585 7.28807 11.3545C7.80407 11.7385 8.28407 11.9545 8.99207 12.1465C9.66407 12.3265 10.1201 12.4945 10.3601 12.6385C10.6121 12.7705 10.7321 12.9625 10.7321 13.2145C10.7321 13.6705 10.3481 13.8985 9.59207 13.8985C8.75207 13.8985 8.16407 13.5145 7.82807 12.7345L6.17207 13.6945C6.65207 14.9785 7.81607 15.7705 9.53207 15.7705Z" fill="#777E90"/>
</svg>
