<svg width="36" height="34" viewBox="0 0 36 34" fill="none" xmlns="http://www.w3.org/2000/svg">
<path fill-rule="evenodd" clip-rule="evenodd" d="M18.0002 19.5774C20.4902 19.5774 22.4852 17.7035 22.4852 15.3822L22.5002 6.992C22.5002 4.6707 20.4902 2.79688 18.0002 2.79688C15.5102 2.79688 13.5002 4.6707 13.5002 6.992V15.3822C13.5002 17.7035 15.5102 19.5774 18.0002 19.5774ZM27.1202 15.3822C26.4902 15.3822 25.9652 15.8017 25.8752 16.3751C25.3202 20.0248 21.7952 22.5139 18.0002 22.5139C14.2052 22.5139 10.6802 20.0388 10.1252 16.3751C10.0352 15.8017 9.49522 15.3822 8.88022 15.3822C8.10022 15.3822 7.50022 16.0255 7.60522 16.7387C8.29522 20.8918 12.0452 24.15 16.5002 24.7793V27.9676C16.5002 28.7367 17.1752 29.366 18.0002 29.366C18.8252 29.366 19.5002 28.7367 19.5002 27.9676V24.7793C23.9402 24.178 27.7052 20.8918 28.3952 16.7387C28.5002 16.0255 27.9002 15.3822 27.1202 15.3822Z" fill="#F4F5F6"/>
</svg>
