<svg xmlns="http://www.w3.org/2000/svg" viewBox="0 0 519.81 477.27"><defs><style>.cls-1{fill:#2b3a96;}.cls-2{fill:#c59b6c;}.cls-3{fill:#fff;}.cls-4{fill:none;}</style></defs><g id="Layer_2" data-name="Layer 2"><g id="Layer_1-2" data-name="Layer 1"><path class="cls-1" d="M61,433.69l0,0c-4.33-3.59-11.26-6.58-20.63-8.89s-13.64-4.18-15.49-5.38a7.15,7.15,0,0,1-3.29-6.3v-.24a6.92,6.92,0,0,1,3-5.87c2.23-1.7,5.3-2.45,9.12-2.56,6.26-.18,12.17,2.25,16.42,4.66a8.88,8.88,0,0,0,11.62-2.59l4.48-6.32-1.07-.86a48.42,48.42,0,0,0-31.21-10.82c-8.57,0-15.78,2.36-21.46,7a23.37,23.37,0,0,0-8.5,18.65v.24c0,7.7,2.63,13.67,7.81,17.71,4,3.3,10.93,6.13,21.09,8.64,7.35,1.74,12.17,3.46,14.74,5.24a7.06,7.06,0,0,1,3,6.08v.24a7.41,7.41,0,0,1-3.34,6.33c-2.45,1.82-5.72,2.43-10,2.7-7.29.46-15-3.43-20.21-6.81a8.91,8.91,0,0,0-11.67,1.72L0,462.59l1.05,1a51.9,51.9,0,0,0,35.8,13.73c9.3,0,16.83-2.32,22.38-6.89,5.9-4.77,8.89-11.33,8.89-19.5v-.24C68.12,443.64,65.71,437.93,61,433.69Z"/><path class="cls-1" d="M92.19,476.08h8.72V398.37a8.69,8.69,0,0,0-8.69-8.69H83.31v77.51A8.89,8.89,0,0,0,92.19,476.08Z"/><path class="cls-1" d="M162.75,427.9,142.6,396.59a15,15,0,0,0-12.66-6.91h-9.67v86.4h9a8.34,8.34,0,0,0,8.34-8.34v-47.9l23.86,35.73h2l24.1-36v48.15a8.34,8.34,0,0,0,8.34,8.34h9.26v-86.4h-9.68a15,15,0,0,0-12.65,6.91Z"/><path class="cls-1" d="M291.31,419.05c0-8.74-3-15.92-9-21.37s-14.2-8-24.22-8H223.75v86.4h9.16a8.44,8.44,0,0,0,8.44-8.45V449.25h15.11c10,0,18.26-2.56,24.51-7.58,6.86-5.37,10.34-12.9,10.34-22.38Zm-50-13.08h15.59c5.18,0,9.18,1.15,12.18,3.49s4.35,5.63,4.35,10v.23a12,12,0,0,1-4.37,9.62c-3,2.53-7.07,3.82-12.16,3.82H241.35Z"/><path class="cls-1" d="M325.13,389.08l-38,87h11.5a10.19,10.19,0,0,0,9.38-6.2l5.94-13.95h37.52l5.84,13.9a10.21,10.21,0,0,0,9.4,6.25h11.94l-38-87ZM344.84,440H320.56l12.09-28.2Z"/><path class="cls-1" d="M432.47,389.68l-22.8,35.57-22.44-35.57H366.29l34.4,52.46v33.94h6.62a11.1,11.1,0,0,0,11.1-11.1v-23.2l34.4-52.1Z"/><path class="cls-1" d="M440.68,466.56h0a4.4,4.4,0,0,1,4.4,4.4v.34a4.4,4.4,0,0,1-4.4,4.4h0a4.4,4.4,0,0,1-4.41-4.4V471A4.4,4.4,0,0,1,440.68,466.56Z"/><path class="cls-1" d="M445.68,440.72h8.61l9.41,25.71,9.47-25.71h8.41L467.27,476h-7.22Z"/><path class="cls-1" d="M488.41,440.72h8v5.37c2.85-4,6.49-6.1,10.93-6.1,3.91,0,7,1.2,9.21,3.65s3.25,5.63,3.25,9.74V475.7h-8V455.83c0-5.7-2.52-8.55-7.49-8.55a7.59,7.59,0,0,0-5.69,2.32,8.8,8.8,0,0,0-2.19,6.36V475.7h-8Z"/><path class="cls-2" d="M264.21,10.9A82,82,0,0,0,142.4,94.47,81.42,81.42,0,0,0,175,148.08L247.7,201.4a31.27,31.27,0,0,1-36.9,50.49l-22.33,45.85a81.14,81.14,0,0,0,40.58,10.86,83.48,83.48,0,0,0,12.67-1,82,82,0,0,0,35.94-147.1L204.92,107.2a31.27,31.27,0,0,1,37-50.46Z"/><path class="cls-2" d="M369.71,192.2A82,82,0,0,0,232.53,103l-53.32,72.74a31.27,31.27,0,0,1-50.49-36.9L82.87,116.46A81.14,81.14,0,0,0,72,157a83.48,83.48,0,0,0,1,12.67,82,82,0,0,0,147.1,35.94l53.32-72.74a31.27,31.27,0,0,1,50.46,37Z"/><polygon class="cls-3" points="163.79 194.5 189.87 141.19 236.83 164.16 202.37 234.59 172.13 219.81 163.79 194.5"/><polygon class="cls-3" points="160.8 100.12 186.1 91.78 239.42 117.86 216.45 164.81 146.01 130.36 160.8 100.12"/><path class="cls-2" d="M233.76,119.8l-19.25,39.35-62.83-30.74,12.14-24.82,22-7.25,48,23.46m11.33-3.89-58.68-28.7-28.63,9.45L140.35,132.3l78,38.18,26.7-54.57Z"/><polygon class="cls-3" points="250.25 74 280.48 88.79 288.83 114.09 262.75 167.41 215.79 144.44 250.25 74"/><path class="cls-2" d="M277,91.81l7.25,22-23.46,48L221.46,142.5l30.73-62.84L277,91.81m6.93-6L248.31,68.33l-38.18,78.05,54.56,26.69,28.7-58.67L284,85.77Z"/><polygon class="cls-3" points="236.17 143.78 306.61 178.24 291.82 208.47 266.52 216.82 213.2 190.74 236.17 143.78"/><path class="cls-2" d="M242.49,162.21l-19.33-9.45a13.2,13.2,0,0,1-2.92,5.06,10.19,10.19,0,0,1-2.26,1.83l13.18,6.45-30.73,62.83L175.6,216.79l-7.25-22,20.25-41.4a37.28,37.28,0,0,1-7.28-4.39l-22.09,45.16,9.44,28.64,35.64,17.43Z"/><path class="cls-2" d="M312.27,176.29l-78-38.17-9.16,18.74a11.89,11.89,0,0,1,5.08,3,12.26,12.26,0,0,1,1.78,2.27l6.19-12.65,62.83,30.73L288.8,205l-22,7.25L222.3,190.47c-.16.32-.32.64-.47,1l-.42,1.13c-.37,1.07-.71,2.15-1,3.23a13.78,13.78,0,0,1-1.12,2.63l46.95,23,28.63-9.45Z"/><line class="cls-4" x1="264.21" y1="10.9" x2="241.87" y2="56.74"/></g></g></svg>