<svg xmlns="http://www.w3.org/2000/svg" viewBox="0 0 1824.01 403.83">
    <defs>
        <style>.cls-1{fill:#2a3a93;}.cls-2{fill:#fff;}.cls-3{fill:#2d368c;}</style>
    </defs>
    <g id="Layer_2" data-name="Layer 2">
        <g id="Layer_1-2" data-name="Layer 1">
            <path class="cls-1"
                  d="M391.09,250.12a103.48,103.48,0,0,1-62,50.08L310.45,237a38.26,38.26,0,1,0-41.89-59,38.51,38.51,0,0,0-2.53,4l-.26.48-.41.74.5.27,1.47,15.46-7.21,13.24a104.51,104.51,0,0,1,9.08,6.58q2.71,2.19,5.26,4.55A104.17,104.17,0,1,1,103.63,329.07l63.2-18.62a38.26,38.26,0,1,0,61.73-39.76q-1.29-1.12-2.7-2.13a35.85,35.85,0,0,0-4-2.53l-1.22-.67-2.31,4.23-7.41,1-18.4-10-.86-.47c-.13.21-.27.42-.41.62a102.59,102.59,0,0,1-10.72,13.73c-.45.49-.91,1-1.37,1.45A104.18,104.18,0,0,1,4.3,233,104.14,104.14,0,0,1,74.76,103.63l18.63,63.2a38.26,38.26,0,1,0,41.88,59,37.35,37.35,0,0,0,2.53-4l.26-.48.41-.75-.5-.27-1.57-16.53,6.81-12.5a104.53,104.53,0,0,1-8.58-6.25q-2.72-2.19-5.26-4.55A104.18,104.18,0,0,1,170.86,4.3,104.15,104.15,0,0,1,300.2,74.75L237,93.38a38.26,38.26,0,1,0-61.74,39.75c.86.75,1.77,1.46,2.71,2.14a36.53,36.53,0,0,0,4,2.53l1.22.66,2.3-4.23,8.42-1.15,18.42,10,.16.09a.76.76,0,0,1,.08-.11,103.41,103.41,0,0,1,10.72-13.73c.45-.49.91-1,1.37-1.45a104.17,104.17,0,0,1,166.4,122.2Z"/>
            <path class="cls-2"
                  d="M206.94,289.8l-28.55-11.88-12.91-25.69-17.61,9.39-6.46-12.87-.51-1-8.21-16.33-13.32-26.55,10.1-32.24,23.3-12.42L143,140.72l2.63-1.46,49-26.15,2.23.92,28.56,11.88,12.89,25.68L256,142.2l6.47,12.88.5,1,7.68,15.28L284.46,199l-10.11,32.23-23.3,12.43,9.78,19.48-2.65,1.44-49,26.15Zm.4-22.81L233,253.29h0L207.32,267Zm-.52-.22L192.34,237.9l-8.8,4.69,9.19,18.32ZM215.29,238l7.94-4.24L218.32,224l-7.93,4.23Zm26-13.87,16-8.54,4.86-15.5,0-.06-26,13.87Zm-67.51-1,8.37-4.46-4.67-9.29-8.36,4.46Zm26.61-14.8,7.51-4-4.42-8.81-7.51,4Zm-58.67-4.57,26-13.86-5.14-10.24-16,8.55-4.86,15.5Zm84.66-9.3,8.36-4.46-4.65-9.28-8.37,4.47ZM185.5,179.79l7.94-4.24-4.9-9.76L180.6,170Zm26-13.87,8.79-4.69-9.18-18.32L197,137.06Zm-40.67-15.37,25.68-13.7h0l-5.78,3.08-.19.1-19.7,10.51Z"/>
            <path class="cls-3"
                  d="M194.83,116.43l.91.37,27.53,11.45L237,155.69l17.61-9.4,5.09,10.14.5,1,7.68,15.29,9.84,19.62,3.47,6.91-9.37,29.9-24.8,13.23,9.78,19.5-.08,0L209,287.4l-.92-.37-27.51-11.45-13.79-27.45-17.61,9.4-5.08-10.13-.5-1L135.37,230l-9.31-18.55-3.47-6.91L132,174.67l24.81-13.22L147,141.94l.07,0,47.78-25.48m-25.31,38.21,26-13.87L210.19,170l14.09-7.51-11-21.93-17-7-6.93,3.7-.24.11-22.33,11.92,2.7,5.38m14.68,29.24,13.23-7.06-7.58-15.12-13.25,7.05,7.6,15.13M240,228.26l19.82-10.57,5.59-17.82L249,167.22l-4.86,2.59,14.44,28.76-26.43,14.1L240,228.26m-85.13,8.35,4.85-2.6-14.44-28.76,26.43-14.09-7.83-15.6L144,186.13,138.45,204l16.39,32.65m70.22-38.06,13.66-7.29-7.35-14.64-13.67,7.29,7.36,14.64m-26,13.87,12.8-6.84-7.11-14.17L192,198.24l7.12,14.18m-26.61,14.79,13.66-7.28-7.35-14.66-13.67,7.29,7.36,14.65M214,242.13l13.23-7.06L219.63,220,206.39,227l7.6,15.13M207.5,270.3l6.94-3.7,1.24-.66L237,254.56l-2.69-5.37-26,13.86-14.67-29.24-14.1,7.51,11,21.93,17,7.05m-13-160.5-2.5,1.33-47.78,25.48-.05,0,0,0-.07,0-5,2.8,2.57,5.12,7.16,14.28-19.64,10.46L127,170.53l-.73,2.34-9.37,29.91-.73,2.32,1.09,2.17,3.47,6.91L130,232.73l8.22,16.36.48,1,5.1,10.16,2.76,5.49,5.42-2.89,12.19-6.5,11,21.95,1,2,2,.86,27.52,11.45.93.38,2.62,1.08,2.49-1.33,47.77-25.49h0l.08,0,5.1-2.78-2.61-5.18-7.15-14.27,19.63-10.47,2.17-1.16.73-2.34,9.38-29.9.72-2.32-1.08-2.17-3.47-6.92L273.29,170l-7.69-15.3-.48-1L260,143.6l-2.76-5.49L251.83,141l-12.19,6.5-11-21.94-1-2-2.06-.85-27.52-11.45-.94-.38-2.61-1.08Zm18.3,52-9.5-18.9,5.61,2.33L216.29,160l-3.49,1.86Zm-28.21,9.47,2.65-1.41,2.21,4.4-2.65,1.41-2.21-4.4Zm-35.56,19,12.22-6.51,2.44,4.87-17,9.06,2.33-7.42Zm76.66-3.82,3.07-1.64,2,3.92-3.07,1.64-2-3.92Zm-25.75,14.34,2.22-1.18,1.73,3.44-2.22,1.19-1.73-3.45Zm40.19,14.43,17-9.07-2.32,7.42-12.23,6.51-2.44-4.86Zm-67-.11,3.07-1.64,2,3.93L175.06,219l-2-3.93Zm41.29,14.44,2.64-1.4,2.21,4.39-2.64,1.41-2.21-4.4Zm-26.85,14.32L191,242l9.49,18.9-5.61-2.33-7.38-14.71Z"/>
            <path class="cls-1"
                  d="M515.19,269.28,560.54,243c9.2,21.36,25.31,31.88,48.31,31.88,20.7,0,31.22-6.25,31.22-18.73,0-6.91-3.29-12.16-10.19-15.78-6.57-3.94-19.06-8.54-37.46-13.47-19.39-5.26-32.54-11.18-46.67-21.69-13.47-10.85-21-27.28-21-48.31,0-21.36,7.56-38.12,22.68-50.94C562.84,93.13,580.92,86.89,602,86.89c37.79,0,67.37,18.07,84.13,51.92l-44.37,26C633.5,147.36,622,138.16,602,138.16c-15.78,0-24.65,7.88-24.65,17.41q0,8.38,7.89,14.79,8.38,6.4,33.52,13.8l21.36,6.91a114,114,0,0,1,19.06,8.87q11.83,5.91,17.75,12.82c8.21,8.87,15.77,24,15.77,42.72,0,22-7.89,39.1-23.66,51.92-15.78,12.49-36.48,18.73-61.78,18.73C560.21,326.13,528.34,304.44,515.19,269.28Z"/>
            <path class="cls-1" d="M717.29,91.49h52.58v230H717.29Z"/>
            <path class="cls-1"
                  d="M1039.35,91.49v230H986.77V187.78l-59.48,97.6h-5.92l-59.48-97.6V321.53H809.31v-230h52.58l62.44,102.2,62.44-102.2Z"/>
            <path class="cls-1"
                  d="M1165.86,91.49c22.68,0,41.74,7.56,57.18,23s23.33,33.85,23.33,55.87-7.88,40.43-23.33,55.87-34.5,23-57.18,23h-34.51v72.3h-52.58v-230Zm0,108.45c16.1,0,27.93-12.82,27.93-29.58s-11.83-29.57-27.93-29.57h-34.51v59.15Z"/>
            <path class="cls-1"
                  d="M1395.9,321.53l-11.5-36.15H1299l-11.5,36.15h-57.51l78.21-230h67l78.21,230Zm-81.17-85.44h53.89l-26.94-84.46Z"/>
            <path class="cls-1"
                  d="M1630.86,91.49l-77.22,141.64v88.4h-52.59v-88.4L1423.83,91.49h59.81l43.71,88.73,43.7-88.73Z"/>
            <path class="cls-1" d="M1611.17,319.07a16.64,16.64,0,1,1,23.53,0A16.63,16.63,0,0,1,1611.17,319.07Z"/>
            <path class="cls-1" d="M1700.91,233.72h29.15l-32.49,87.81h-29.85l-32.49-87.81h29.15l18.26,55.67Z"/>
            <path class="cls-1"
                  d="M1814.53,240.92c6.32,6.5,9.48,15.28,9.48,26.7v53.91h-26.34v-50c0-10.36-6.32-16-15.28-16-10,0-16.33,6.15-16.33,18.09v47.94h-26.35V233.72h26.35V242c5.26-7.21,13.69-10.72,25.11-10.72C1800.48,231.26,1808.38,234.42,1814.53,240.92Z"/>
        </g>
    </g>
</svg>