<svg xmlns="http://www.w3.org/2000/svg" viewBox="0 0 502.45 118.71"><defs><style>.cls-1{fill:#2b3a96;}.cls-2{fill:#c59b6c;}.cls-3{fill:#fff;}.cls-4{fill:none;}</style></defs><g id="Layer_2" data-name="Layer 2"><g id="Layer_1-2" data-name="Layer 1"><path class="cls-1" d="M194.19,59.9l0,0c-2.93-2.42-7.62-4.44-13.95-6s-9.22-2.82-10.47-3.64A4.82,4.82,0,0,1,167.52,46v-.16a4.69,4.69,0,0,1,2-4,10.5,10.5,0,0,1,6.17-1.73,22,22,0,0,1,11.1,3.15,6,6,0,0,0,7.85-1.75l3-4.27-.72-.59a32.75,32.75,0,0,0-21.1-7.31c-5.8,0-10.67,1.59-14.51,4.75a15.77,15.77,0,0,0-5.75,12.61v.16c0,5.21,1.78,9.24,5.28,12,2.73,2.24,7.39,4.15,14.26,5.84,5,1.19,8.23,2.35,10,3.55a4.78,4.78,0,0,1,2,4.11v.17a5,5,0,0,1-2.26,4.28c-1.66,1.22-3.87,1.63-6.75,1.82-4.93.31-10.14-2.32-13.66-4.6a6,6,0,0,0-7.89,1.16L153,79.44l.71.64a35,35,0,0,0,24.2,9.29c6.29,0,11.38-1.57,15.14-4.66a16.11,16.11,0,0,0,6-13.18v-.16A14.68,14.68,0,0,0,194.19,59.9Z"/><path class="cls-1" d="M215.32,88.56h5.89V36a5.88,5.88,0,0,0-5.88-5.88h-6V82.56A6,6,0,0,0,215.32,88.56Z"/><path class="cls-1" d="M263,56,249.4,34.81a10.18,10.18,0,0,0-8.56-4.67H234.3V88.56h6.1A5.64,5.64,0,0,0,246,82.93V50.54L262.17,74.7h1.38l16.3-24.33V82.93a5.63,5.63,0,0,0,5.64,5.63h6.26V30.14h-6.54a10.18,10.18,0,0,0-8.56,4.67Z"/><path class="cls-1" d="M350,50a18.75,18.75,0,0,0-6.07-14.45c-4.08-3.59-9.59-5.41-16.37-5.41H304.27V88.56h6.2a5.71,5.71,0,0,0,5.71-5.71V70.42h10.21c6.76,0,12.34-1.72,16.57-5.12,4.64-3.63,7-8.72,7-15.14Zm-33.78-8.84h10.53c3.51,0,6.21.77,8.24,2.36a8.11,8.11,0,0,1,2.94,6.72v.17a8.09,8.09,0,0,1-2.95,6.5,12.36,12.36,0,0,1-8.23,2.58H316.18Z"/><path class="cls-1" d="M371.82,29.74l-25.7,58.82h7.78a6.89,6.89,0,0,0,6.34-4.19l4-9.43h25.37l3.95,9.4a6.88,6.88,0,0,0,6.35,4.22H408l-25.7-58.82Zm13.33,34.43H368.74l8.17-19.07Z"/><path class="cls-1" d="M442.4,30.14,427,54.2,411.81,30.14H397.65l23.26,35.48V88.56h4.48a7.5,7.5,0,0,0,7.5-7.5V65.38l23.27-35.24Z"/><path class="cls-1" d="M448.94,81.25h0a3,3,0,0,1,3,3v.22a3,3,0,0,1-3,3h0a3,3,0,0,1-3-3v-.22A3,3,0,0,1,448.94,81.25Z"/><path class="cls-1" d="M452.32,63.78h5.83l6.36,17.38,6.4-17.38h5.69l-9.67,23.83H462Z"/><path class="cls-1" d="M481.22,63.78h5.42v3.63A8.74,8.74,0,0,1,494,63.29a8,8,0,0,1,6.22,2.46,9.38,9.38,0,0,1,2.2,6.59V87.43H497V74c0-3.85-1.7-5.77-5.06-5.77a5.15,5.15,0,0,0-3.86,1.56,6,6,0,0,0-1.47,4.3V87.43h-5.42Z"/><path class="cls-2" d="M73.93,4.19A31.52,31.52,0,0,0,27.08,36.34,31.29,31.29,0,0,0,39.6,57l28,20.51A12,12,0,0,1,53.39,96.89L44.8,114.53a31.16,31.16,0,0,0,15.61,4.18,32.16,32.16,0,0,0,4.87-.38A31.52,31.52,0,0,0,79.11,61.75l-28-20.51A12,12,0,0,1,65.34,21.82Z"/><path class="cls-2" d="M114.52,73.93A31.53,31.53,0,0,0,61.75,39.6l-20.51,28A12,12,0,0,1,21.81,53.39L4.18,44.8A31.16,31.16,0,0,0,0,60.41a32.16,32.16,0,0,0,.38,4.87,31.52,31.52,0,0,0,36,26.35A31.29,31.29,0,0,0,57,79.11l20.51-28A12,12,0,1,1,96.88,65.34Z"/><polygon class="cls-3" points="35.3 74.82 45.34 54.31 63.4 63.15 50.14 90.24 38.51 84.55 35.3 74.82"/><polygon class="cls-3" points="34.15 38.52 43.89 35.3 64.4 45.34 55.56 63.4 28.46 50.15 34.15 38.52"/><path class="cls-2" d="M62.22,46.08,54.81,61.22,30.64,49.4l4.68-9.55,8.45-2.79,18.45,9m4.36-1.49L44,33.55,33,37.18l-6.7,13.71,30,14.69,10.27-21Z"/><polygon class="cls-3" points="68.56 28.47 80.19 34.16 83.4 43.89 73.37 64.4 55.31 55.56 68.56 28.47"/><path class="cls-2" d="M78.86,35.32l2.79,8.45-9,18.45L57.49,54.81,69.31,30.64l9.55,4.68M81.53,33l-13.71-6.7-14.69,30,21,10.27L85.16,44,81.53,33Z"/><polygon class="cls-3" points="63.15 55.31 90.24 68.56 84.55 80.19 74.82 83.41 54.31 73.37 63.15 55.31"/><path class="cls-2" d="M65.58,62.4l-7.44-3.64a5.13,5.13,0,0,1-1.12,2,3.88,3.88,0,0,1-.87.7l5.07,2.48L49.4,88.06l-9.55-4.67-2.79-8.45L44.85,59a14.68,14.68,0,0,1-2.8-1.69L33.55,74.7l3.63,11,13.71,6.7Z"/><path class="cls-2" d="M92.42,67.82l-30-14.69-3.53,7.21a4.61,4.61,0,0,1,2,1.14,4.33,4.33,0,0,1,.68.88l2.38-4.87L88.06,69.31l-4.67,9.55-8.45,2.79L57.81,73.27l-.18.37-.16.43c-.14.42-.27.83-.4,1.25a5,5,0,0,1-.43,1L74.7,85.16l11-3.63Z"/><line class="cls-4" x1="73.93" y1="4.19" x2="65.34" y2="21.82"/></g></g></svg>