<svg width="24" height="24" viewBox="0 0 24 24" fill="none" xmlns="http://www.w3.org/2000/svg">
<path fill-rule="evenodd" clip-rule="evenodd" d="M10 20C10 21.6569 8.65685 23 7 23C5.34315 23 4 21.6569 4 20C4 18.3431 5.34315 17 7 17C8.65685 17 10 18.3431 10 20ZM8 20C8 20.5523 7.55228 21 7 21C6.44771 21 6 20.5523 6 20C6 19.4477 6.44771 19 7 19C7.55228 19 8 19.4477 8 20Z" fill="#777E90"/>
<path fill-rule="evenodd" clip-rule="evenodd" d="M20 20C20 21.6569 18.6569 23 17 23C15.3431 23 14 21.6569 14 20C14 18.3431 15.3431 17 17 17C18.6569 17 20 18.3431 20 20ZM18 20C18 20.5523 17.5523 21 17 21C16.4477 21 16 20.5523 16 20C16 19.4477 16.4477 19 17 19C17.5523 19 18 19.4477 18 20Z" fill="#777E90"/>
<path fill-rule="evenodd" clip-rule="evenodd" d="M2.10579 2.55301C2.35278 2.05903 2.95345 1.8588 3.44743 2.10579L4.45094 2.60755C5.38021 3.07218 6.00292 3.98454 6.09698 5.01922L6.14482 5.54549C6.16823 5.80303 6.38417 6.00022 6.64277 6.00022H19.8357C21.5812 6.00022 22.7894 7.74365 22.1765 9.37803L20.4232 14.0536C19.9841 15.2245 18.8648 16.0002 17.6142 16.0002H7.82665C6.27504 16.0002 4.97944 14.8171 4.83897 13.2718L4.10519 5.20029C4.07384 4.8554 3.86627 4.55128 3.55651 4.3964L2.55301 3.89465C2.05903 3.64766 1.8588 3.04698 2.10579 2.55301ZM6.9155 8.00022C6.62148 8.00022 6.39093 8.25268 6.41755 8.54549L6.83076 13.0908C6.87758 13.6058 7.30944 14.0002 7.82665 14.0002H17.6142C18.0311 14.0002 18.4042 13.7416 18.5505 13.3513L20.3039 8.67578C20.4265 8.3489 20.1848 8.00022 19.8357 8.00022H6.9155Z" fill="#777E90"/>
</svg>
