<svg width="24" height="24" viewBox="0 0 24 24" fill="none" xmlns="http://www.w3.org/2000/svg">
<path fill-rule="evenodd" clip-rule="evenodd" d="M3.74963 4.62501L20.2496 4.625C20.8019 4.625 21.2496 5.07271 21.2496 5.625C21.2496 6.17728 20.8019 6.625 20.2496 6.625L3.74963 6.62501C3.19735 6.62501 2.74963 6.17729 2.74963 5.62501C2.74963 5.07272 3.19735 4.62501 3.74963 4.62501Z" fill="black"/>
<path fill-rule="evenodd" clip-rule="evenodd" d="M9.75 8.75C10.3023 8.75 10.75 9.19772 10.75 9.75V15.75C10.75 16.3023 10.3023 16.75 9.75 16.75C9.19772 16.75 8.75 16.3023 8.75 15.75V9.75C8.75 9.19772 9.19772 8.75 9.75 8.75Z" fill="black"/>
<path fill-rule="evenodd" clip-rule="evenodd" d="M14.25 8.75C14.8023 8.75 15.25 9.19772 15.25 9.75V15.75C15.25 16.3023 14.8023 16.75 14.25 16.75C13.6977 16.75 13.25 16.3023 13.25 15.75V9.75C13.25 9.19772 13.6977 8.75 14.25 8.75Z" fill="black"/>
<path fill-rule="evenodd" clip-rule="evenodd" d="M5.25 4.625C5.80228 4.625 6.25 5.07272 6.25 5.625V19.25H17.75V5.625C17.75 5.07272 18.1977 4.625 18.75 4.625C19.3023 4.625 19.75 5.07272 19.75 5.625V19.5C19.75 19.9641 19.5656 20.4092 19.2374 20.7374C18.9092 21.0656 18.4641 21.25 18 21.25H6C5.53587 21.25 5.09075 21.0656 4.76256 20.7374C4.43437 20.4092 4.25 19.9641 4.25 19.5V5.625C4.25 5.07272 4.69772 4.625 5.25 4.625Z" fill="black"/>
<path fill-rule="evenodd" clip-rule="evenodd" d="M7.98223 1.60723C8.45107 1.13839 9.08696 0.875 9.75 0.875H14.25C14.913 0.875 15.5489 1.13839 16.0178 1.60723C16.4866 2.07607 16.75 2.71196 16.75 3.375V5.625C16.75 6.17728 16.3023 6.625 15.75 6.625C15.1977 6.625 14.75 6.17728 14.75 5.625V3.375C14.75 3.24239 14.6973 3.11522 14.6036 3.02145C14.5098 2.92768 14.3826 2.875 14.25 2.875H9.75C9.61739 2.875 9.49022 2.92768 9.39645 3.02145C9.30268 3.11522 9.25 3.24239 9.25 3.375V5.625C9.25 6.17728 8.80228 6.625 8.25 6.625C7.69772 6.625 7.25 6.17728 7.25 5.625V3.375C7.25 2.71196 7.51339 2.07607 7.98223 1.60723Z" fill="black"/>
</svg>
