<svg width="32" height="32" viewBox="0 0 32 32" fill="none" xmlns="http://www.w3.org/2000/svg">
<path d="M16 2.6665C13.414 2.67142 10.8852 3.42825 8.72166 4.84482C6.55812 6.26139 4.85322 8.27656 3.81461 10.6449C2.77601 13.0132 2.44853 15.6324 2.87206 18.1835C3.29559 20.7346 4.45186 23.1075 6.20002 25.0132C7.44859 26.3666 8.96395 27.4467 10.6506 28.1854C12.3373 28.9242 14.1587 29.3056 16 29.3056C17.8414 29.3056 19.6628 28.9242 21.3494 28.1854C23.0361 27.4467 24.5515 26.3666 25.8 25.0132C27.5482 23.1075 28.7045 20.7346 29.128 18.1835C29.5515 15.6324 29.224 13.0132 28.1854 10.6449C27.1468 8.27656 25.4419 6.26139 23.2784 4.84482C21.1148 3.42825 18.5861 2.67142 16 2.6665ZM16 26.6665C13.238 26.6623 10.5852 25.5869 8.60002 23.6665C9.20275 22.1992 10.2281 20.9442 11.5457 20.061C12.8633 19.1778 14.4138 18.7062 16 18.7062C17.5863 18.7062 19.1367 19.1778 20.4544 20.061C21.772 20.9442 22.7973 22.1992 23.4 23.6665C21.4148 25.5869 18.7621 26.6623 16 26.6665ZM13.3334 13.3332C13.3334 12.8058 13.4898 12.2902 13.7828 11.8516C14.0758 11.4131 14.4923 11.0713 14.9795 10.8695C15.4668 10.6677 16.003 10.6148 16.5203 10.7177C17.0375 10.8206 17.5127 11.0746 17.8856 11.4476C18.2586 11.8205 18.5126 12.2956 18.6155 12.8129C18.7183 13.3302 18.6655 13.8664 18.4637 14.3537C18.2619 14.8409 17.9201 15.2574 17.4815 15.5504C17.043 15.8434 16.5274 15.9998 16 15.9998C15.2928 15.9998 14.6145 15.7189 14.1144 15.2188C13.6143 14.7187 13.3334 14.0404 13.3334 13.3332ZM25.2134 21.3332C24.0221 19.2955 22.1886 17.7105 20 16.8265C20.6789 16.0567 21.1213 15.1074 21.274 14.0924C21.4267 13.0775 21.2833 12.04 20.861 11.1045C20.4387 10.169 19.7555 9.37525 18.8932 8.81846C18.031 8.26167 17.0264 7.9655 16 7.9655C14.9736 7.9655 13.9691 8.26167 13.1068 8.81846C12.2446 9.37525 11.5613 10.169 11.139 11.1045C10.7167 12.04 10.5733 13.0775 10.7261 14.0924C10.8788 15.1074 11.3211 16.0567 12 16.8265C9.81149 17.7105 7.97798 19.2955 6.78669 21.3332C5.83728 19.716 5.33565 17.8751 5.33336 15.9998C5.33336 13.1709 6.45716 10.4578 8.45755 8.45736C10.4579 6.45698 13.171 5.33317 16 5.33317C18.829 5.33317 21.5421 6.45698 23.5425 8.45736C25.5429 10.4578 26.6667 13.1709 26.6667 15.9998C26.6644 17.8751 26.1628 19.716 25.2134 21.3332Z" fill="#777E90"/>
</svg>
