<svg width="20" height="20" viewBox="0 0 20 20" fill="none" xmlns="http://www.w3.org/2000/svg">
<g clip-path="url(#clip0_756:11970)">
<path d="M5.83333 2.50098C3.99238 2.50098 2.5 3.99336 2.5 5.83431V15.8343C2.5 17.6753 3.99238 19.1676 5.83333 19.1676H14.1667C16.0076 19.1676 17.5 17.6753 17.5 15.8343V5.83431C17.5 3.99336 16.0076 2.50098 14.1667 2.50098V4.16764C15.0871 4.16764 15.8333 4.91384 15.8333 5.83431V15.8343C15.8333 16.7548 15.0871 17.501 14.1667 17.501H5.83333C4.91286 17.501 4.16667 16.7548 4.16667 15.8343V5.83431C4.16667 4.91384 4.91286 4.16764 5.83333 4.16764V2.50098Z" fill="#777E91"/>
<path d="M6.66683 9.16764C7.12707 9.16764 7.50016 8.79455 7.50016 8.33431C7.50016 7.87407 7.12707 7.50098 6.66683 7.50098C6.20659 7.50098 5.8335 7.87407 5.8335 8.33431C5.8335 8.79455 6.20659 9.16764 6.66683 9.16764Z" fill="#777E91"/>
<path d="M10.0002 7.50098C9.53993 7.50098 9.16683 7.87407 9.16683 8.33431C9.16683 8.79455 9.53993 9.16764 10.0002 9.16764H13.3335C13.7937 9.16764 14.1668 8.79455 14.1668 8.33431C14.1668 7.87407 13.7937 7.50098 13.3335 7.50098H10.0002Z" fill="#777E91"/>
<path d="M10.0002 10.8343C9.53993 10.8343 9.16683 11.2074 9.16683 11.6676C9.16683 12.1279 9.53993 12.501 10.0002 12.501H13.3335C13.7937 12.501 14.1668 12.1279 14.1668 11.6676C14.1668 11.2074 13.7937 10.8343 13.3335 10.8343H10.0002Z" fill="#777E91"/>
<path d="M9.16683 15.001C9.16683 14.5407 9.53993 14.1676 10.0002 14.1676H11.6668C12.1271 14.1676 12.5002 14.5407 12.5002 15.001C12.5002 15.4612 12.1271 15.8343 11.6668 15.8343H10.0002C9.53993 15.8343 9.16683 15.4612 9.16683 15.001Z" fill="#777E91"/>
<path d="M7.50016 11.6676C7.50016 12.1279 7.12707 12.501 6.66683 12.501C6.20659 12.501 5.8335 12.1279 5.8335 11.6676C5.8335 11.2074 6.20659 10.8343 6.66683 10.8343C7.12707 10.8343 7.50016 11.2074 7.50016 11.6676Z" fill="#777E91"/>
<path d="M6.66683 15.8343C7.12707 15.8343 7.50016 15.4612 7.50016 15.001C7.50016 14.5407 7.12707 14.1676 6.66683 14.1676C6.20659 14.1676 5.8335 14.5407 5.8335 15.001C5.8335 15.4612 6.20659 15.8343 6.66683 15.8343Z" fill="#777E91"/>
<path fill-rule="evenodd" clip-rule="evenodd" d="M12.5 2.50114H7.5C7.03976 2.50114 6.66667 2.87424 6.66667 3.33447C6.66667 3.79471 7.03976 4.16781 7.5 4.16781H12.5C12.9602 4.16781 13.3333 3.79471 13.3333 3.33447C13.3333 2.87424 12.9602 2.50114 12.5 2.50114ZM7.5 0.834473C6.11929 0.834473 5 1.95376 5 3.33447C5 4.71518 6.11929 5.83447 7.5 5.83447H12.5C13.8807 5.83447 15 4.71518 15 3.33447C15 1.95376 13.8807 0.834473 12.5 0.834473H7.5Z" fill="#777E91"/>
</g>
<defs>
<clipPath id="clip0_756:11970">
<rect width="20" height="20" fill="white" transform="translate(0 0.000976562)"/>
</clipPath>
</defs>
</svg>
