<svg width="32" height="32" viewBox="0 0 32 32" fill="none" xmlns="http://www.w3.org/2000/svg">
<path fill-rule="evenodd" clip-rule="evenodd" d="M7.93482 16.0002C7.52286 16.0002 7.2095 16.3701 7.27722 16.7764L8.55424 24.4386C8.76855 25.7244 9.88106 26.6668 11.1846 26.6668H20.8153C22.1188 26.6668 23.2314 25.7244 23.4457 24.4386L24.7227 16.7764C24.7904 16.3701 24.477 16.0002 24.0651 16.0002H7.93482ZM5.5739 13.3335C4.74998 13.3335 4.12325 14.0733 4.25871 14.886L5.92386 24.877C6.35247 27.4486 8.57749 29.3335 11.1846 29.3335H20.8153C23.4224 29.3335 25.6474 27.4486 26.076 24.877L27.7412 14.886C27.8766 14.0733 27.2499 13.3335 26.426 13.3335H5.5739Z" fill="#777E90"/>
<path d="M13.3333 18.6665C12.597 18.6665 12 19.2635 12 19.9998V22.6665C12 23.4029 12.597 23.9998 13.3333 23.9998C14.0697 23.9998 14.6667 23.4029 14.6667 22.6665V19.9998C14.6667 19.2635 14.0697 18.6665 13.3333 18.6665Z" fill="#777E90"/>
<path d="M18.6667 18.6665C17.9303 18.6665 17.3333 19.2635 17.3333 19.9998V22.6665C17.3333 23.4029 17.9303 23.9998 18.6667 23.9998C19.403 23.9998 20 23.4029 20 22.6665V19.9998C20 19.2635 19.403 18.6665 18.6667 18.6665Z" fill="#777E90"/>
<path d="M14.2761 4.94265C14.7968 4.42195 14.7968 3.57773 14.2761 3.05703C13.7554 2.53633 12.9112 2.53633 12.3905 3.05703L7.05715 8.39036C6.53645 8.91106 6.53645 9.75528 7.05715 10.276C7.57785 10.7967 8.42207 10.7967 8.94277 10.276L14.2761 4.94265Z" fill="#777E90"/>
<path d="M17.7238 4.94265C17.2031 4.42195 17.2031 3.57773 17.7238 3.05703C18.2445 2.53633 19.0887 2.53633 19.6094 3.05703L24.9428 8.39036C25.4635 8.91106 25.4635 9.75528 24.9428 10.276C24.4221 10.7967 23.5778 10.7967 23.0572 10.276L17.7238 4.94265Z" fill="#777E90"/>
<path fill-rule="evenodd" clip-rule="evenodd" d="M25.3333 10.6667H6.66663C5.93025 10.6667 5.33329 11.2636 5.33329 12C5.33329 12.7364 5.93025 13.3333 6.66663 13.3333H25.3333C26.0697 13.3333 26.6666 12.7364 26.6666 12C26.6666 11.2636 26.0697 10.6667 25.3333 10.6667ZM6.66663 8C4.45749 8 2.66663 9.79086 2.66663 12C2.66663 14.2091 4.45749 16 6.66663 16H25.3333C27.5424 16 29.3333 14.2091 29.3333 12C29.3333 9.79086 27.5424 8 25.3333 8H6.66663Z" fill="#777E90"/>
</svg>
