<svg width="24" height="24" viewBox="0 0 24 24" fill="none" xmlns="http://www.w3.org/2000/svg">
<g clip-path="url(#clip0_1146:32610)">
<path d="M2 16V7C2 5.89543 2.89543 5 4 5H12.1906C12.4865 5 12.7787 5.06566 13.0462 5.19223L19.8556 8.41489C20.5544 8.74563 21 9.44952 21 10.2227V16C21 17.1046 20.1046 18 19 18H4C2.89543 18 2 17.1046 2 16Z" stroke="#777E90" stroke-width="2"/>
<path d="M19 14.565C18.4027 14.2064 17.702 14 16.9545 14C14.7807 14 13 15.7462 13 17.9228C13 19.7598 14.0232 21.1237 15.0942 22.0435C16.1652 22.9634 17.3929 23.5388 18.0839 23.82C18.6736 24.06 19.3264 24.06 19.9161 23.82L19.5766 22.9857L19.9161 23.82C20.6071 23.5388 21.8348 22.9634 22.9058 22.0435C23.9768 21.1237 25 19.7598 25 17.9228C25 15.7462 23.2193 14 21.0455 14C20.298 14 19.5973 14.2064 19 14.565Z" fill="#E73C3D" stroke="white" stroke-width="2"/>
</g>
<defs>
<clipPath id="clip0_1146:32610">
<rect width="24" height="24" fill="white"/>
</clipPath>
</defs>
</svg>
