<svg width="24" height="24" viewBox="0 0 24 24" fill="none" xmlns="http://www.w3.org/2000/svg">
<path fill-rule="evenodd" clip-rule="evenodd" d="M5.95114 12C5.64217 12 5.40715 12.2774 5.45795 12.5822L6.41571 18.3288C6.57644 19.2932 7.41082 20 8.3885 20H15.6115C16.5892 20 17.4235 19.2932 17.5843 18.3288L18.542 12.5822C18.5928 12.2774 18.3578 12 18.0488 12H5.95114ZM4.18045 10C3.56251 10 3.09247 10.5549 3.19406 11.1644L4.44293 18.6576C4.76438 20.5863 6.43314 22 8.3885 22H15.6115C17.5668 22 19.2356 20.5863 19.5571 18.6576L20.8059 11.1644C20.9075 10.5549 20.4375 10 19.8195 10H4.18045Z" fill="#777E91"/>
<path d="M10 14C9.44772 14 9 14.4477 9 15V17C9 17.5523 9.44772 18 10 18C10.5523 18 11 17.5523 11 17V15C11 14.4477 10.5523 14 10 14Z" fill="#777E91"/>
<path d="M14 14C13.4477 14 13 14.4477 13 15V17C13 17.5523 13.4477 18 14 18C14.5523 18 15 17.5523 15 17V15C15 14.4477 14.5523 14 14 14Z" fill="#777E91"/>
<path d="M10.7071 3.70711C11.0976 3.31658 11.0976 2.68342 10.7071 2.29289C10.3166 1.90237 9.68342 1.90237 9.29289 2.29289L5.29289 6.29289C4.90237 6.68342 4.90237 7.31658 5.29289 7.70711C5.68342 8.09763 6.31658 8.09763 6.70711 7.70711L10.7071 3.70711Z" fill="#777E91"/>
<path d="M13.2929 3.70711C12.9024 3.31658 12.9024 2.68342 13.2929 2.29289C13.6834 1.90237 14.3166 1.90237 14.7071 2.29289L18.7071 6.29289C19.0976 6.68342 19.0976 7.31658 18.7071 7.70711C18.3166 8.09763 17.6834 8.09763 17.2929 7.70711L13.2929 3.70711Z" fill="#777E91"/>
<path fill-rule="evenodd" clip-rule="evenodd" d="M19 8H5C4.44772 8 4 8.44772 4 9C4 9.55229 4.44772 10 5 10H19C19.5523 10 20 9.55228 20 9C20 8.44771 19.5523 8 19 8ZM5 6C3.34315 6 2 7.34315 2 9C2 10.6569 3.34315 12 5 12H19C20.6569 12 22 10.6569 22 9C22 7.34315 20.6569 6 19 6H5Z" fill="#777E91"/>
</svg>
