<svg width="20" height="20" viewBox="0 0 20 20" fill="none" xmlns="http://www.w3.org/2000/svg">
<path fill-rule="evenodd" clip-rule="evenodd" d="M9.19107 12.5017C9.65098 12.4844 10.0379 12.8431 10.0552 13.303C10.0944 14.3399 10.1494 15.0966 10.2034 15.6392C10.2566 16.1735 10.5792 16.495 11.0289 16.5499C11.5591 16.6148 12.307 16.6678 13.3334 16.6678C14.3598 16.6678 15.1078 16.6148 15.638 16.5499C16.0874 16.495 16.4101 16.1734 16.4634 15.6389C16.5637 14.6318 16.6667 12.8918 16.6667 10.0011C16.6667 7.11046 16.5637 5.37048 16.4634 4.36337C16.4101 3.82891 16.0874 3.50728 15.638 3.45234C15.1078 3.38752 14.3598 3.33447 13.3334 3.33447C12.307 3.33447 11.5591 3.38751 11.0289 3.45233C10.5792 3.5073 10.2566 3.82879 10.2034 4.36311C10.1494 4.90568 10.0944 5.66242 10.0552 6.69924C10.0379 7.15915 9.65098 7.51791 9.19107 7.50055C8.73116 7.48318 8.3724 7.09628 8.38976 6.63637C8.42994 5.57217 8.4869 4.78066 8.54495 4.1979C8.667 2.97276 9.52117 1.95756 10.8266 1.79798C11.4343 1.72369 12.2507 1.6678 13.3334 1.6678C14.4161 1.6678 15.2325 1.7237 15.8402 1.79798C17.1458 1.95759 17.9998 2.97326 18.1218 4.19816C18.2293 5.27671 18.3334 7.07487 18.3334 10.0011C18.3334 12.9274 18.2293 14.7256 18.1218 15.8041C17.9998 17.029 17.1458 18.0447 15.8402 18.2043C15.2325 18.2786 14.4161 18.3345 13.3334 18.3345C12.2507 18.3345 11.4343 18.2786 10.8266 18.2043C9.52117 18.0447 8.667 17.0295 8.54495 15.8044C8.4869 15.2216 8.42994 14.4301 8.38976 13.3659C8.3724 12.906 8.73116 12.5191 9.19107 12.5017Z" fill="#777E91"/>
<path fill-rule="evenodd" clip-rule="evenodd" d="M6.00576 12.3284C6.3312 12.6538 6.3312 13.1815 6.00576 13.5069C5.68032 13.8323 5.15269 13.8323 4.82725 13.5069L1.91058 10.5902C1.58514 10.2648 1.58514 9.73716 1.91058 9.41172L4.82725 6.49505C5.15269 6.16962 5.68032 6.16962 6.00576 6.49505C6.3312 6.82049 6.3312 7.34813 6.00576 7.67357L4.51168 9.16764H12.4998C12.9601 9.16764 13.3332 9.54074 13.3332 10.001C13.3332 10.4612 12.9601 10.8343 12.4998 10.8343L4.51168 10.8343L6.00576 12.3284Z" fill="#777E91"/>
</svg>
