<svg width="20" height="20" viewBox="0 0 20 20" fill="none" xmlns="http://www.w3.org/2000/svg">
<path fill-rule="evenodd" clip-rule="evenodd" d="M11.3253 18.5795C13.4789 16.8156 17.5 12.9094 17.5 8.33301C17.5 4.19087 14.1421 0.833008 10 0.833008C5.85786 0.833008 2.5 4.19087 2.5 8.33301C2.5 12.9094 6.52115 16.8156 8.67467 18.5795C9.45546 19.219 10.5445 19.219 11.3253 18.5795ZM10 9.99967C11.3807 9.99967 12.5 8.88039 12.5 7.49967C12.5 6.11896 11.3807 4.99967 10 4.99967C8.61929 4.99967 7.5 6.11896 7.5 7.49967C7.5 8.88039 8.61929 9.99967 10 9.99967Z" fill="#3772FF"/>
</svg>
