<svg width="32" height="32" viewBox="0 0 32 32" fill="none" xmlns="http://www.w3.org/2000/svg">
<path d="M23.2 12.6736V12.2C23.2 8.224 19.976 5 16 5C12.024 5 8.8 8.224 8.8 12.2V12.6736C8.8 14.9504 7.5888 17.0672 5.6128 18.2C4.5872 18.7888 4 19.4704 4 20.2C4 22.4096 9.3728 24.2 16 24.2C22.6272 24.2 28 22.4096 28 20.2C28 19.4704 27.4128 18.7888 26.3872 18.2C24.4112 17.0688 23.2 14.9504 23.2 12.6736Z" stroke="#777E90" stroke-width="3" stroke-miterlimit="10" stroke-linecap="round" stroke-linejoin="round"/>
<path d="M19.6672 26.6001C19.0496 28.0129 17.64 29.0001 16 29.0001C14.36 29.0001 12.952 28.0129 12.3328 26.6017" stroke="#777E90" stroke-width="3" stroke-miterlimit="10" stroke-linecap="round" stroke-linejoin="round"/>
</svg>
