<svg width="20" height="20" viewBox="0 0 20 20" fill="none" xmlns="http://www.w3.org/2000/svg">
<path fill-rule="evenodd" clip-rule="evenodd" d="M11 6.09375C11 5.54147 10.5523 5.09375 10 5.09375C9.44773 5.09375 9.00001 5.54147 9.00001 6.09375V8.99998H6.09375C5.54147 8.99998 5.09375 9.4477 5.09375 9.99998C5.09375 10.5523 5.54147 11 6.09375 11H9.00001V13.9062C9.00001 14.4585 9.44773 14.9062 10 14.9062C10.5523 14.9062 11 14.4585 11 13.9062V11H13.9062C14.4585 11 14.9062 10.5523 14.9062 9.99998C14.9062 9.4477 14.4585 8.99998 13.9062 8.99998H11V6.09375Z" fill="#3772FF"/>
<path d="M9.00001 8.99998V9.49998C9.27615 9.49998 9.50001 9.27612 9.50001 8.99998H9.00001ZM9.00001 11H9.50001C9.50001 10.7238 9.27615 10.5 9.00001 10.5V11ZM11 11V10.5C10.7239 10.5 10.5 10.7238 10.5 11H11ZM11 8.99998H10.5C10.5 9.27612 10.7239 9.49998 11 9.49998V8.99998ZM10 5.59375C10.2762 5.59375 10.5 5.81761 10.5 6.09375H11.5C11.5 5.26532 10.8284 4.59375 10 4.59375V5.59375ZM9.50001 6.09375C9.50001 5.81761 9.72387 5.59375 10 5.59375V4.59375C9.17158 4.59375 8.50001 5.26532 8.50001 6.09375H9.50001ZM9.50001 8.99998V6.09375H8.50001V8.99998H9.50001ZM6.09375 9.49998H9.00001V8.49998H6.09375V9.49998ZM5.59375 9.99998C5.59375 9.72384 5.81761 9.49998 6.09375 9.49998V8.49998C5.26532 8.49998 4.59375 9.17155 4.59375 9.99998H5.59375ZM6.09375 10.5C5.81761 10.5 5.59375 10.2761 5.59375 9.99998H4.59375C4.59375 10.8284 5.26532 11.5 6.09375 11.5V10.5ZM9.00001 10.5H6.09375V11.5H9.00001V10.5ZM9.50001 13.9062V11H8.50001V13.9062H9.50001ZM10 14.4062C9.72387 14.4062 9.50001 14.1824 9.50001 13.9062H8.50001C8.50001 14.7347 9.17158 15.4062 10 15.4062V14.4062ZM10.5 13.9062C10.5 14.1824 10.2762 14.4062 10 14.4062V15.4062C10.8284 15.4062 11.5 14.7347 11.5 13.9062H10.5ZM10.5 11V13.9062H11.5V11H10.5ZM13.9062 10.5H11V11.5H13.9062V10.5ZM14.4062 9.99998C14.4062 10.2761 14.1824 10.5 13.9062 10.5V11.5C14.7347 11.5 15.4062 10.8284 15.4062 9.99998H14.4062ZM13.9062 9.49998C14.1824 9.49998 14.4062 9.72384 14.4062 9.99998H15.4062C15.4062 9.17155 14.7347 8.49998 13.9062 8.49998V9.49998ZM11 9.49998H13.9062V8.49998H11V9.49998ZM10.5 6.09375V8.99998H11.5V6.09375H10.5Z" fill="#3772FF"/>
</svg>
