<svg width="24" height="24" viewBox="0 0 24 24" fill="none" xmlns="http://www.w3.org/2000/svg">
<path fill-rule="evenodd" clip-rule="evenodd" d="M14 13.6972C14 13.4998 14.0584 13.3068 14.1679 13.1425L19.2265 5.5547C19.6695 4.89015 19.1931 4 18.3944 4H5.60551C4.80681 4 4.33042 4.89015 4.77346 5.5547L9.83201 13.1425C9.94152 13.3068 9.99996 13.4998 9.99996 13.6972V19.5873C9.99996 20.3727 10.8639 20.8515 11.53 20.4353L13.53 19.1853C13.8223 19.0025 14 18.682 14 18.3373V13.6972ZM16 14.3028C16 14.1054 16.0584 13.9123 16.1679 13.7481L20.8906 6.6641C22.2197 4.67044 20.7905 2 18.3944 2H5.60551C3.20942 2 1.78025 4.67043 3.10936 6.6641L7.83201 13.7481C7.94152 13.9123 7.99996 14.1054 7.99996 14.3028V19.5873C7.99996 21.9436 10.5918 23.3801 12.59 22.1313L14.59 20.8813C15.4671 20.333 16 19.3716 16 18.3373V14.3028Z" fill="#777E91"/>
</svg>
